<svg width="128" height="128" viewBox="0 0 128 128" xmlns="http://www.w3.org/2000/svg">
  <defs>
    <linearGradient id="gradient" x1="0%" y1="0%" x2="100%" y2="100%">
      <stop offset="0%" style="stop-color:#1d9bf0;stop-opacity:1" />
      <stop offset="100%" style="stop-color:#8b5cf6;stop-opacity:1" />
    </linearGradient>
  </defs>
  
  <!-- Background circle -->
  <circle cx="64" cy="64" r="60" fill="url(#gradient)" />
  
  <!-- Robot head -->
  <rect x="40" y="35" width="48" height="40" rx="8" fill="white" />
  
  <!-- Eyes -->
  <circle cx="52" cy="48" r="4" fill="#1d9bf0" />
  <circle cx="76" cy="48" r="4" fill="#1d9bf0" />
  
  <!-- Mouth -->
  <rect x="56" y="60" width="16" height="3" rx="1.5" fill="#8b5cf6" />
  
  <!-- Antenna -->
  <line x1="64" y1="35" x2="64" y2="25" stroke="white" stroke-width="3" stroke-linecap="round" />
  <circle cx="64" cy="22" r="3" fill="white" />
  
  <!-- Body -->
  <rect x="45" y="75" width="38" height="30" rx="6" fill="white" />
  
  <!-- Arms -->
  <rect x="30" y="80" width="15" height="6" rx="3" fill="white" />
  <rect x="83" y="80" width="15" height="6" rx="3" fill="white" />
  
  <!-- Chest panel -->
  <rect x="55" y="85" width="18" height="12" rx="2" fill="#f0f0f0" />
  <circle cx="58" cy="89" r="1.5" fill="#1d9bf0" />
  <circle cx="64" cy="89" r="1.5" fill="#8b5cf6" />
  <circle cx="70" cy="89" r="1.5" fill="#1d9bf0" />
</svg>